<svg viewBox="0 0 24 24" xmlns="http://www.w3.org/2000/svg">
  <path fill="#9E9E9E" d="M7 14A7 7 0 1 1 7 0a7 7 0 0 1 0 14z" />
  <path fill="#212121" d="M7 13A6 6 0 1 0 7 1a6 6 0 0 0 0 12z" fill-rule="nonzero" />
  <path fill="#9E9E9E" d="M8.16 7.184c.519-.37.904-.857 1.07-1.477.384-1.427-.619-2.897-2.246-2.897-.732 0-1.327.26-1.766.692a2.163 2.163 0 0 0-.509.743.75.75 0 0 0 1.4.54.78.78 0 0 1 .16-.213c.168-.165.39-.262.715-.262.597 0 .936.496.798 1.007-.067.249-.235.462-.492.644-.231.165-.47.264-.601.3a.75.75 0 0 0-.556.724v1.421a.75.75 0 0 0 1.5 0v-.909c.168-.082.346-.185.526-.313z" fill-rule="nonzero" />
  <ellipse fill="#9E9E9E" cx="6.889" cy="10.634" rx="1" ry="1" />
</svg>
